# xmcd
#
# Track frame offsets:
#	150
#	23848
#	42745
#	72576
#	98891
#	126741
#	150683
#	183491
#	206300
#	227029
#	246947
#	265313
#	297421
#
# Disc length: 4305 seconds
#
# Revision: 1
# Processed by: cddbd v1.5.2PL0 Copyright (c) Steve Scherf et al.
# Submitted via: audiograbber 1.83.01
#
DISCID=ca10cf0d
DTITLE=Grateful Dead - 70-11-06A Capitol Theatre, Port Chester NY
DYEAR=1900
DGENRE=
TTITLE0=NRPS Working Man Blues
TTITLE1=NRPS I Don't Know You
TTITLE2=NRPS Whatcha Gonna Do
TTITLE3=NRPS Glendale Train
TTITLE4=NRPS Portland Woman
TTITLE5=NRPS Fair Chance To Know
TTITLE6=NRPS All I Ever Wanted
TTITLE7=NRPS Truck Driving Man
TTITLE8=NRPS Lodi
TTITLE9=NRPS Me and Bobby McGee
TTITLE10=NRPS Louisiana Lady
TTITLE11=NRPS The Weight
TTITLE12=NRPS Honky Tonk Woman
EXTD=
EXTT0=
EXTT1=
EXTT2=
EXTT3=
EXTT4=
EXTT5=
EXTT6=
EXTT7=
EXTT8=
EXTT9=
EXTT10=
EXTT11=
EXTT12=
PLAYORDER=
